<?xml version="1.0" standalone="no"?>
<!DOCTYPE svg PUBLIC "-//W3C//DTD SVG 20010904//EN"
 "http://www.w3.org/TR/2001/REC-SVG-20010904/DTD/svg10.dtd">
<svg version="1.0" xmlns="http://www.w3.org/2000/svg"
 width="200.000000pt" height="200.000000pt" viewBox="0 0 200.000000 200.000000"
 preserveAspectRatio="xMidYMid meet">

<g transform="translate(0.000000,200.000000) scale(0.100000,-0.100000)"
fill="#000000" stroke="none">
<path d="M125 1991 c-44 -3 -90 -12 -102 -19 l-23 -13 0 -979 0 -980 1000 0
1000 0 0 999 0 999 -897 0 c-494 -1 -934 -4 -978 -7z m1825 -989 l0 -959 -197
-6 c-252 -9 -976 -9 -1390 0 l-323 6 0 959 0 958 955 0 955 0 0 -958z"/>
<path d="M1093 1893 c9 -2 17 -9 17 -14 0 -6 4 -7 10 -4 16 10 48 -13 53 -37
4 -23 4 -23 6 -1 1 28 -43 63 -78 62 -17 -1 -20 -3 -8 -6z"/>
<path d="M909 1873 c-13 -16 -12 -17 4 -4 9 7 17 15 17 17 0 8 -8 3 -21 -13z"/>
<path d="M982 1848 c-13 -13 -17 -78 -4 -78 5 0 7 13 4 28 -2 18 2 35 13 45 9
10 13 17 8 17 -5 0 -14 -5 -21 -12z"/>
<path d="M892 1793 c-2 -52 -5 -63 -19 -64 -13 0 -11 -3 7 -11 14 -6 33 -10
43 -9 9 1 17 -3 17 -10 0 -8 7 -6 20 6 11 10 28 15 39 12 17 -4 18 -2 8 14
-10 15 -14 16 -27 5 -8 -7 -29 -13 -47 -13 l-32 0 -4 66 -3 66 -2 -62z"/>
<path d="M483 1783 c15 -2 39 -2 55 0 15 2 2 4 -28 4 -30 0 -43 -2 -27 -4z"/>
<path d="M1023 1783 c15 -2 39 -2 55 0 15 2 2 4 -28 4 -30 0 -43 -2 -27 -4z"/>
<path d="M1518 1783 c18 -2 45 -2 60 0 15 2 0 4 -33 4 -33 0 -45 -2 -27 -4z"/>
<path d="M570 1770 c0 -5 11 -10 24 -10 26 0 41 -14 49 -45 4 -18 5 -18 6 2 0
12 -9 31 -21 43 -23 21 -58 27 -58 10z"/>
<path d="M1118 1773 c6 -2 9 -10 6 -15 -4 -7 -2 -8 5 -4 12 8 41 -10 41 -25 0
-11 -62 -8 -77 4 -9 6 -13 6 -13 -1 0 -25 79 -37 100 -16 15 15 -38 66 -67 63
-4 0 -2 -3 5 -6z"/>
<path d="M1612 1768 c2 -6 14 -12 27 -13 25 -2 43 -23 36 -42 -2 -7 0 -13 5
-13 18 0 10 31 -15 55 -25 26 -60 34 -53 13z"/>
<path d="M440 1690 c4 -43 5 -43 8 -10 2 19 8 40 12 45 6 7 3 11 -8 11 -14 0
-16 -8 -12 -46z"/>
<path d="M1471 1694 c-2 -40 0 -42 21 -36 19 5 20 7 6 10 -22 4 -23 35 -3 56
14 13 13 15 -3 13 -14 -1 -19 -10 -21 -43z"/>
<path d="M1205 1721 c3 -5 -4 -12 -15 -16 -13 -4 -20 -15 -20 -31 0 -13 -9
-33 -20 -44 -11 -11 -16 -20 -12 -20 16 0 42 36 42 58 0 12 9 26 20 32 21 11
27 30 9 30 -5 0 -8 -4 -4 -9z"/>
<path d="M981 1701 c-12 -8 -13 -14 -3 -35 6 -14 16 -26 22 -26 7 0 4 7 -4 16
-19 19 -20 26 -4 42 14 14 9 15 -11 3z"/>
<path d="M892 1670 c0 -14 2 -19 5 -12 2 6 2 18 0 25 -3 6 -5 1 -5 -13z"/>
<path d="M573 1656 c41 -15 71 -36 62 -44 -12 -12 -61 -8 -78 7 -16 13 -17 13
-12 -2 7 -17 34 -30 56 -25 8 2 13 -3 11 -10 -2 -9 5 -7 22 5 19 14 22 22 14
36 -10 20 -66 47 -95 47 -10 -1 -1 -7 20 -14z"/>
<path d="M1595 1662 c45 -12 75 -31 75 -46 0 -18 -51 -16 -74 3 -14 11 -16 11
-16 -2 0 -18 30 -30 54 -21 11 4 16 1 16 -12 1 -18 1 -18 11 -1 5 9 18 17 27
17 13 0 9 7 -14 30 -20 21 -43 32 -69 35 -34 4 -36 4 -10 -3z"/>
<path d="M900 1636 c0 -2 8 -10 18 -17 15 -13 16 -12 3 4 -13 16 -21 21 -21
13z"/>
<path d="M442 1618 c-14 -14 -72 -20 -72 -7 0 5 -7 6 -15 3 -14 -6 -13 -8 2
-20 11 -8 22 -9 28 -3 14 14 25 11 25 -6 0 -13 4 -12 22 5 12 11 25 20 30 20
14 0 9 -18 -7 -24 -17 -6 -20 -42 -5 -51 6 -4 7 -11 4 -17 -5 -8 -1 -9 10 -5
10 4 30 8 44 8 23 1 22 2 -7 8 -41 7 -64 36 -41 51 8 5 19 11 25 13 5 2 2 11
-7 20 -20 20 -21 20 -36 5z"/>
<path d="M1481 1616 c-11 -13 -57 -15 -77 -4 -5 3 -18 2 -29 -3 -18 -7 -18 -8
5 -10 14 -1 33 -3 43 -3 10 -1 21 -6 25 -11 4 -6 19 1 37 17 16 16 25 28 19
28 -7 0 -17 -6 -23 -14z"/>
<path d="M675 1600 c3 -5 8 -10 11 -10 2 0 4 5 4 10 0 6 -5 10 -11 10 -5 0 -7
-4 -4 -10z"/>
<path d="M646 1578 c-3 -7 -7 -25 -10 -40 -3 -15 -15 -30 -27 -33 -11 -4 -18
-9 -15 -12 12 -12 56 28 56 50 0 13 5 28 12 35 9 9 9 12 0 12 -7 0 -14 -6 -16
-12z"/>
<path d="M1480 1566 c0 -14 5 -28 10 -31 6 -4 7 -11 4 -17 -5 -8 -1 -9 10 -5
10 4 30 8 44 8 19 1 15 4 -13 8 -36 5 -40 9 -40 34 1 15 -3 27 -7 27 -4 0 -8
-11 -8 -24z"/>
<path d="M1687 1583 c-4 -3 -7 -15 -7 -25 0 -10 -11 -30 -25 -43 -13 -14 -20
-25 -16 -25 14 0 41 37 51 69 9 32 8 36 -3 24z"/>
<path d="M552 1552 c-11 -25 -11 -25 4 -10 9 9 15 21 13 27 -2 6 -10 -2 -17
-17z"/>
<path d="M361 1539 c-1 -9 7 -23 17 -30 15 -12 16 -12 6 1 -6 8 -14 22 -17 30
-5 13 -6 12 -6 -1z"/>
<path d="M820 1503 c-14 -3 -27 -8 -30 -12 -3 -3 -31 -22 -64 -41 -32 -19 -86
-65 -120 -101 -33 -37 -92 -85 -130 -108 -62 -37 -74 -41 -135 -41 -55 0 -79
-6 -128 -30 -33 -17 -68 -39 -78 -50 -17 -19 -14 -19 36 4 29 14 62 26 72 26
30 0 57 -19 57 -40 0 -18 7 -20 66 -20 58 0 65 -2 60 -17 -3 -10 -8 -30 -11
-45 -6 -22 -15 -28 -58 -39 -96 -22 -166 -73 -181 -129 l-7 -25 22 28 c33 43
75 61 109 47 32 -13 47 -44 53 -110 6 -53 18 -94 42 -140 17 -33 18 -34 26
-12 5 12 14 22 20 22 7 0 45 -22 85 -50 87 -60 140 -84 258 -116 92 -24 116
-25 74 -3 -46 24 -168 132 -207 183 -55 71 -81 131 -81 191 0 71 26 114 90
148 60 31 109 34 233 15 68 -10 84 -9 133 6 62 19 121 66 126 99 2 12 0 35 -4
51 -6 25 -5 28 12 23 30 -8 25 20 -9 54 -35 34 -57 37 -66 8 -4 -11 -9 -19
-11 -16 -7 7 25 75 38 81 7 3 0 4 -17 1 -16 -3 -39 -17 -50 -30 -19 -22 -23
-23 -67 -14 -36 8 -45 14 -41 26 4 11 15 14 39 10 19 -3 34 -2 34 4 0 5 -20 9
-44 9 -31 0 -46 -5 -50 -16 -5 -12 -13 -14 -33 -9 -16 4 -31 12 -35 18 -6 8
-10 9 -15 1 -5 -6 -17 -14 -28 -19 -15 -6 -1 -12 60 -25 44 -9 94 -25 110 -34
30 -18 29 -18 -61 -12 -50 3 -99 8 -108 12 -9 3 -16 2 -16 -4 0 -13 95 -34
148 -32 42 1 112 -24 112 -41 0 -5 9 -9 20 -9 29 0 25 -34 -6 -59 -47 -37 -95
-45 -185 -33 -93 13 -105 18 -89 37 8 10 6 15 -9 20 -11 3 -36 24 -55 45 -30
33 -36 48 -36 83 1 75 46 148 129 206 24 17 40 30 35 30 -5 -1 -20 -4 -34 -6z"/>
<path d="M1162 1480 c92 -62 144 -149 135 -229 -2 -25 -2 -40 0 -33 3 8 25 12
63 12 l58 0 -10 -42 c-5 -24 -14 -48 -21 -54 -7 -6 -59 -24 -117 -40 -101 -27
-104 -28 -70 -37 19 -4 51 -12 70 -17 71 -19 149 -111 150 -177 0 -19 5 -21
45 -20 44 2 45 1 45 -29 0 -22 -15 -48 -53 -95 -65 -78 -143 -138 -240 -185
l-72 -34 -5 47 -5 48 -13 -45 c-12 -40 -19 -48 -58 -64 -25 -10 -44 -20 -42
-22 6 -5 191 33 243 51 73 25 163 71 222 116 58 44 68 46 81 22 16 -27 52 57
66 150 9 68 15 83 38 100 24 18 30 18 58 7 17 -7 44 -29 60 -49 66 -80 12 51
-60 144 -53 70 -61 102 -33 130 20 21 66 15 126 -14 23 -11 42 -19 44 -17 2 2
-29 34 -70 72 -71 68 -233 184 -256 184 -6 0 -11 3 -11 8 0 12 -88 44 -101 36
-7 -4 -9 -3 -6 3 5 9 -41 39 -48 31 -1 -2 -8 -13 -14 -26 -7 -12 -17 -20 -22
-16 -6 4 -4 15 6 30 8 13 11 24 6 24 -5 0 -16 3 -24 6 -8 3 -17 -2 -21 -12 -5
-14 -4 -15 9 -4 13 11 14 10 9 -4 -8 -20 -9 -20 -39 0 -15 10 -22 22 -18 32 4
14 3 15 -5 2 -9 -12 -14 -12 -39 0 -15 8 -30 18 -33 21 -3 4 -21 10 -40 14
l-35 7 47 -32z m246 -115 c-6 -14 -13 -23 -15 -21 -5 5 15 46 22 46 3 0 -1
-11 -7 -25z m-10 -122 c-15 -2 -42 -2 -60 0 -18 2 -6 4 27 4 33 0 48 -2 33 -4z"/>
<path d="M802 942 c-10 -7 -9 -15 3 -39 9 -17 22 -36 30 -43 13 -11 15 -7 16
21 1 19 1 40 0 47 -3 18 33 15 60 -7 13 -10 30 -17 37 -15 7 1 8 0 2 -3 -5 -2
-10 -14 -10 -26 0 -12 -25 -53 -55 -91 -30 -38 -55 -72 -55 -77 0 -15 38 -29
82 -29 24 0 49 -5 56 -12 9 -9 12 -7 12 10 0 20 -5 22 -50 22 -27 0 -50 3 -50
8 0 4 19 30 41 57 72 86 80 127 31 165 -18 15 -40 20 -81 20 -31 0 -62 -4 -69
-8z"/>
<path d="M1052 928 c27 -22 28 -27 30 -128 3 -93 5 -105 21 -104 9 1 17 -2 17
-7 0 -13 37 -11 45 2 4 6 -2 13 -13 16 -19 5 -21 14 -24 109 -2 63 1 105 7
107 18 7 65 -15 76 -34 5 -11 9 -57 9 -102 -2 -86 5 -120 24 -114 7 2 12 44
14 118 3 148 2 150 -135 156 l-98 5 27 -24z"/>
<path d="M1415 820 c3 -5 25 -9 48 -9 40 1 40 2 12 9 -44 11 -67 11 -60 0z"/>
<path d="M483 523 c15 -2 37 -2 50 0 12 2 0 4 -28 4 -27 0 -38 -2 -22 -4z"/>
<path d="M1508 523 c17 -2 47 -2 65 0 17 2 3 4 -33 4 -36 0 -50 -2 -32 -4z"/>
<path d="M570 506 c6 -8 17 -13 23 -11 17 7 35 -7 46 -35 9 -24 10 -24 10 -3
1 25 -42 63 -72 63 -16 0 -17 -3 -7 -14z"/>
<path d="M1610 510 c0 -5 9 -10 19 -10 25 0 54 -28 47 -46 -3 -8 -1 -14 4 -14
18 0 10 31 -15 55 -24 25 -55 33 -55 15z"/>
<path d="M365 489 c-4 -6 -5 -12 -2 -15 2 -3 7 2 10 11 7 17 1 20 -8 4z"/>
<path d="M433 446 c-1 -16 2 -36 7 -45 7 -12 9 -7 10 20 0 19 4 39 10 45 6 6
4 10 -8 10 -12 0 -18 -9 -19 -30z"/>
<path d="M1471 438 c-2 -34 1 -38 21 -37 17 1 18 3 6 6 -22 6 -23 36 -3 57 14
13 13 15 -3 13 -14 -1 -19 -10 -21 -39z"/>
<path d="M500 403 c71 -7 100 -14 95 -23 -3 -6 0 -7 8 -4 8 3 20 -2 27 -11 14
-17 15 -16 -28 -20 -18 -1 -35 1 -38 6 -3 5 -10 7 -15 3 -18 -11 24 -33 43
-23 14 8 18 6 18 -7 0 -16 1 -16 19 0 13 11 27 15 40 11 12 -4 21 -2 21 4 0 6
-8 11 -19 11 -10 0 -25 7 -32 17 -22 26 -74 43 -126 41 -38 -1 -41 -2 -13 -5z"/>
<path d="M1013 403 c15 -2 39 -2 55 0 15 2 2 4 -28 4 -30 0 -43 -2 -27 -4z"/>
<path d="M1601 401 c43 -14 69 -31 69 -45 0 -18 -51 -16 -74 3 -14 11 -16 11
-16 -2 0 -18 30 -30 54 -21 11 4 16 1 16 -12 1 -18 1 -18 11 -1 5 9 18 17 27
17 31 0 -40 59 -78 65 -29 4 -31 4 -9 -4z"/>
<path d="M1102 388 c3 -7 11 -13 19 -14 33 -2 38 -5 47 -31 9 -25 11 -25 11
-6 1 12 -10 31 -25 42 -30 23 -58 28 -52 9z"/>
<path d="M441 356 c-9 -10 -27 -13 -67 -10 -31 3 -54 1 -54 -5 0 -5 8 -7 19
-4 10 3 22 0 26 -7 5 -8 10 -8 21 1 11 9 15 8 20 -5 5 -14 8 -14 21 -1 8 8 22
15 31 15 15 -1 15 -2 0 -11 -20 -11 -24 -44 -8 -54 6 -4 8 -11 5 -16 -8 -11 6
-12 23 0 10 6 9 10 -7 14 -26 6 -27 35 -3 54 12 10 14 16 4 19 -6 3 -10 10 -6
15 9 15 -12 10 -25 -5z"/>
<path d="M1478 357 c-17 -13 -56 -15 -75 -4 -5 3 -18 1 -27 -6 -15 -11 -11
-12 24 -12 23 0 45 -4 48 -10 4 -6 19 0 37 17 30 28 25 39 -7 15z"/>
<path d="M893 300 c0 -36 2 -50 4 -32 2 17 2 47 0 65 -2 17 -4 3 -4 -33z"/>
<path d="M970 310 c4 -43 5 -43 8 -10 2 19 8 40 12 45 6 7 3 11 -8 11 -14 0
-16 -8 -12 -46z"/>
<path d="M647 323 c-4 -3 -7 -17 -7 -29 0 -12 -12 -32 -26 -43 -15 -12 -22
-21 -15 -21 17 0 51 38 51 58 0 10 5 23 12 30 7 7 8 12 2 12 -6 0 -14 -3 -17
-7z"/>
<path d="M1480 306 c0 -14 5 -28 10 -31 6 -4 7 -11 4 -17 -5 -8 -1 -9 10 -5
10 4 27 8 39 8 13 1 7 4 -13 8 -30 5 -35 10 -35 34 1 15 -3 27 -7 27 -4 0 -8
-11 -8 -24z"/>
<path d="M1687 323 c-4 -3 -7 -15 -7 -25 0 -10 -11 -30 -25 -43 -13 -14 -20
-25 -16 -25 14 0 41 37 51 69 9 32 8 36 -3 24z"/>
<path d="M1082 281 c42 -9 91 -38 83 -50 -7 -12 -60 -8 -77 6 -12 10 -15 10
-15 -2 0 -17 40 -31 56 -20 6 3 11 -1 11 -11 0 -16 1 -16 18 -1 10 10 25 17
33 17 10 -1 9 -3 -3 -11 -10 -5 -18 -19 -18 -30 0 -11 -11 -31 -25 -44 -13
-14 -20 -25 -15 -25 19 0 50 40 50 64 0 16 7 27 20 31 26 8 26 25 0 25 -10 0
-23 6 -27 14 -12 22 -65 46 -98 45 -28 -1 -28 -2 7 -8z"/>
<path d="M963 235 c1 -6 -21 -9 -58 -9 -33 1 -51 0 -40 -3 11 -3 25 -9 31 -14
6 -5 15 -4 22 3 8 8 13 7 18 -5 5 -14 8 -14 27 3 23 22 37 26 37 10 0 -5 5
-10 10 -10 6 0 6 7 -1 18 -12 19 -49 25 -46 7z"/>
<path d="M974 195 c-4 -8 -3 -23 2 -32 4 -10 6 -22 5 -27 -1 -5 5 -6 14 -2 9
3 22 6 28 7 7 1 1 4 -13 8 -19 5 -25 14 -25 34 1 30 -3 34 -11 12z"/>
<path d="M891 164 c0 -12 7 -28 17 -35 15 -12 16 -12 6 1 -7 8 -14 24 -17 35
-4 19 -5 19 -6 -1z"/>
</g>
</svg>
